<?xml version="1.0" standalone="no"?>
<!DOCTYPE svg PUBLIC "-//W3C//DTD SVG 20010904//EN"
 "http://www.w3.org/TR/2001/REC-SVG-20010904/DTD/svg10.dtd">
<svg version="1.0" xmlns="http://www.w3.org/2000/svg"
 width="2144.000000pt" height="2127.000000pt" viewBox="0 0 2144.000000 2127.000000"
 preserveAspectRatio="xMidYMid meet">

<g transform="translate(0.000000,2127.000000) scale(0.100000,-0.100000)"
fill="#000000" stroke="none">
<path d="M106 21164 c-34 -33 -10 -104 34 -104 19 0 55 29 46 37 -3 3 -12 -2
-21 -11 -9 -9 -20 -16 -25 -16 -15 0 -40 31 -40 50 0 19 25 50 40 50 5 0 16
-7 24 -16 14 -13 16 -13 16 -1 0 28 -50 36 -74 11z"/>
<path d="M600 21146 c-6 -20 -9 -50 -5 -66 5 -21 3 -30 -6 -30 -7 0 -10 -2 -7
-5 3 -3 495 -5 1094 -5 l1089 0 8 32 c8 30 -8 117 -19 106 -2 -2 1 -19 6 -37
5 -18 7 -46 3 -62 l-5 -29 -1009 0 c-644 0 -1009 4 -1009 10 0 5 7 7 15 4 21
-8 45 14 45 41 0 28 -19 45 -48 42 -19 -1 -22 -7 -22 -49 l0 -48 -59 0 c-57 0
-59 1 -64 29 -4 16 -2 44 3 62 13 45 5 49 -10 5z m188 -50 c-4 -25 -27 -28
-41 -4 -8 12 -7 21 2 32 18 21 43 2 39 -28z"/>
<path d="M1890 21120 l0 -60 30 0 c23 0 33 6 42 26 15 32 0 59 -31 58 -14 0
-21 5 -21 18 0 10 -4 18 -10 18 -6 0 -10 -27 -10 -60z m55 -16 c0 -19 -5 -29
-15 -29 -16 0 -25 28 -16 51 10 25 31 10 31 -22z"/>
<path d="M2510 21160 c0 -13 -5 -18 -15 -14 -21 8 -45 -14 -45 -41 0 -28 19
-45 48 -42 20 1 22 7 22 59 0 32 -2 58 -5 58 -3 0 -5 -9 -5 -20z m-5 -56 c0
-32 -21 -39 -38 -12 -8 12 -7 21 3 32 19 24 35 14 35 -20z"/>
<path d="M1768 21160 c-5 -16 3 -100 11 -100 3 0 5 23 4 51 -1 50 -7 71 -15
49z"/>
<path d="M217 21144 c-14 -14 -7 -26 8 -14 12 10 19 10 27 2 8 -8 7 -13 -5
-17 -9 -3 -24 -7 -33 -10 -8 -3 -14 -13 -12 -22 2 -13 14 -18 39 -19 l35 -2
-5 42 c-5 31 -11 42 -26 44 -12 2 -24 0 -28 -4z m41 -56 c-7 -19 -38 -22 -38
-4 0 10 9 16 21 16 12 0 19 -5 17 -12z"/>
<path d="M290 21104 c0 -54 18 -59 22 -6 4 52 31 50 39 -3 l7 -40 -2 45 c-1
43 -2 45 -33 47 -33 1 -33 1 -33 -43z"/>
<path d="M381 21146 c-2 -17 22 -86 30 -86 4 0 14 20 22 45 9 25 12 45 8 45
-5 0 -13 -15 -18 -32 l-10 -33 -16 35 c-8 19 -16 31 -16 26z"/>
<path d="M476 21142 c-3 -6 3 -8 14 -5 14 4 20 0 20 -10 0 -9 -10 -17 -22 -19
-15 -2 -23 -10 -23 -23 0 -16 7 -20 35 -21 l36 -1 -6 41 c-4 32 -10 42 -27 44
-11 2 -24 -1 -27 -6z m32 -58 c-9 -9 -21 -13 -27 -9 -16 10 -3 25 22 25 20 0
20 -1 5 -16z"/>
<path d="M652 21138 c-30 -30 -2 -86 38 -73 15 5 20 15 20 40 0 41 -32 59 -58
33z m43 -34 c0 -32 -21 -39 -38 -12 -8 12 -7 21 3 32 19 24 35 14 35 -20z"/>
<path d="M830 21136 c-15 -20 -9 -56 12 -70 14 -8 22 -7 35 8 17 18 17 18 -5
7 -23 -12 -42 -8 -42 10 0 5 14 9 30 9 31 0 39 17 18 38 -16 16 -33 15 -48 -2z
m40 -11 c11 -13 8 -15 -14 -15 -25 0 -33 10 -19 23 10 11 19 8 33 -8z"/>
<path d="M911 21101 c1 -25 3 -37 6 -26 2 11 6 30 9 43 8 39 32 26 37 -20 l4
-43 -1 45 c-1 42 -3 45 -28 46 -27 1 -28 -1 -27 -45z"/>
<path d="M1007 21143 c-15 -14 -6 -34 20 -44 20 -7 23 -13 15 -21 -9 -9 -15
-9 -24 0 -18 18 -33 15 -18 -3 17 -20 54 -15 58 7 2 12 -6 21 -23 28 -15 6
-23 15 -20 21 4 6 13 8 21 5 8 -3 14 -1 14 4 0 11 -33 14 -43 3z"/>
<path d="M1120 21105 c0 -25 5 -45 10 -45 6 0 10 20 10 45 0 25 -4 45 -10 45
-5 0 -10 -20 -10 -45z"/>
<path d="M1161 21101 c1 -25 3 -37 6 -26 2 11 6 30 9 43 8 39 32 26 37 -20 l4
-43 -1 45 c-1 42 -3 45 -28 46 -27 1 -28 -1 -27 -45z"/>
<path d="M1297 21143 c-14 -13 -7 -25 8 -13 8 6 19 9 25 5 17 -11 11 -23 -12
-27 -15 -2 -23 -10 -23 -23 0 -16 7 -20 33 -20 29 -1 32 2 32 30 0 17 -5 36
-12 43 -13 13 -41 16 -51 5z m43 -52 c0 -14 -18 -23 -30 -16 -6 4 -8 11 -5 16
8 12 35 12 35 0z"/>
<path d="M1431 21101 l2 -46 6 40 c4 26 11 40 21 40 10 0 17 -14 21 -40 l7
-40 -2 45 c-1 42 -3 45 -28 46 -27 1 -28 -1 -27 -45z"/>
<path d="M1522 21138 c-16 -16 -15 -53 3 -68 18 -15 47 -10 53 10 5 13 3 13
-12 1 -15 -12 -19 -12 -34 2 -15 16 -14 17 16 17 25 0 32 4 32 19 0 28 -37 40
-58 19z m46 -16 c2 -7 -7 -12 -23 -12 -24 0 -26 2 -15 15 14 17 31 16 38 -3z"/>
<path d="M1602 21135 c0 -31 12 -66 23 -68 5 -1 13 12 16 28 6 31 7 31 26 -25
7 -18 32 34 32 65 0 13 -5 7 -13 -15 l-13 -35 -7 33 c-4 17 -11 32 -16 32 -5
0 -12 -15 -16 -32 l-7 -33 -13 35 c-7 21 -12 27 -12 15z"/>
<path d="M1817 21144 c-14 -14 -7 -26 8 -14 12 10 19 10 27 2 8 -8 7 -13 -5
-17 -9 -3 -24 -7 -33 -10 -8 -3 -14 -13 -12 -22 2 -13 14 -18 39 -19 l35 -2
-5 42 c-5 31 -11 42 -26 44 -12 2 -24 0 -28 -4z m41 -56 c-7 -19 -38 -22 -38
-4 0 10 9 16 21 16 12 0 19 -5 17 -12z"/>
<path d="M2029 21129 c-8 -16 -8 -28 0 -45 18 -41 71 -25 71 21 0 44 -50 61
-71 24z m50 -8 c7 -13 6 -23 -3 -36 -16 -22 -36 -12 -36 19 0 39 22 49 39 17z"/>
<path d="M2121 21100 c2 -34 3 -37 6 -15 3 17 12 38 20 47 14 15 13 17 -6 15
-18 -1 -21 -7 -20 -47z"/>
<path d="M2210 21143 c0 -21 22 -83 29 -83 5 0 12 15 16 33 l7 32 10 -34 c5
-19 13 -30 18 -25 12 13 30 84 20 84 -4 0 -11 -15 -15 -32 l-7 -33 -9 33 c-5
17 -13 32 -18 32 -5 0 -12 -15 -16 -32 l-7 -33 -9 33 c-9 29 -19 43 -19 25z"/>
<path d="M2333 21105 c0 -27 2 -38 4 -22 2 15 2 37 0 50 -2 12 -4 0 -4 -28z"/>
<path d="M2371 21101 l2 -46 6 40 c4 26 11 40 21 40 10 0 17 -14 21 -40 l7
-40 -2 45 c-1 42 -3 45 -28 46 -27 1 -28 -1 -27 -45z"/>
<path d="M2552 21138 c-30 -30 -2 -86 38 -73 15 5 20 15 20 40 0 41 -32 59
-58 33z m43 -34 c0 -32 -21 -39 -38 -12 -8 12 -7 21 3 32 19 24 35 14 35 -20z"/>
<path d="M2632 21135 c0 -31 12 -66 23 -68 5 -1 13 12 16 28 6 31 7 31 26 -25
7 -18 32 34 32 65 0 13 -5 7 -13 -15 l-13 -35 -7 33 c-4 17 -11 32 -16 32 -5
0 -12 -15 -16 -32 l-7 -33 -13 35 c-7 21 -12 27 -12 15z"/>
<path d="M198 21043 c68 -2 176 -2 240 0 64 1 9 3 -123 3 -132 0 -185 -2 -117
-3z"/>
<path d="M917 20973 c-4 -3 -7 -89 -7 -190 l0 -183 -399 0 c-256 0 -402 -4
-406 -10 -4 -7 135 -10 409 -10 l416 0 0 200 c0 110 -1 200 -3 200 -2 0 -7 -3
-10 -7z"/>
<path d="M243 20826 c-29 -30 -53 -61 -53 -70 0 -20 -2 -20 45 4 l40 20 7 -20
c10 -27 16 -25 63 15 l40 35 -40 35 c-22 19 -42 35 -45 34 -3 0 -29 -24 -57
-53z m116 -16 c0 -3 -13 -15 -30 -28 -25 -20 -29 -21 -29 -6 0 14 -7 16 -41
11 l-41 -5 23 24 c12 13 29 24 36 24 8 0 16 7 19 15 5 12 11 11 34 -8 16 -12
29 -24 29 -27z"/>
<path d="M420 20785 c-17 -20 -6 -43 25 -51 38 -9 29 -40 -10 -36 -23 3 -27 0
-19 -8 6 -6 24 -10 40 -8 23 2 30 9 32 29 3 22 -2 29 -27 37 -48 17 -40 38 13
32 11 -1 15 3 12 9 -10 16 -52 13 -66 -4z"/>
<path d="M510 20740 c0 -33 4 -60 10 -60 6 0 10 15 10 34 0 20 6 36 14 39 20
8 26 -2 26 -40 0 -18 5 -33 10 -33 12 0 13 60 1 79 -5 8 -18 12 -30 8 -16 -4
-21 -1 -21 14 0 10 -4 19 -10 19 -6 0 -10 -27 -10 -60z"/>
<path d="M620 20761 c0 -5 8 -7 19 -4 10 3 22 0 25 -6 4 -7 -1 -11 -12 -11
-25 0 -46 -25 -39 -45 4 -9 19 -14 42 -13 32 1 35 4 35 33 0 17 -5 36 -12 43
-14 14 -58 16 -58 3z m50 -46 c0 -16 -27 -32 -37 -22 -3 4 -3 13 0 22 8 20 37
20 37 0z"/>
<path d="M710 20723 c0 -23 5 -43 10 -43 6 0 10 16 10 35 0 28 5 38 23 44 19
8 18 9 -10 9 -32 -1 -33 -2 -33 -45z"/>
<path d="M779 20749 c-18 -34 3 -69 41 -69 16 0 30 5 30 11 0 6 -7 9 -15 5
-18 -6 -45 2 -45 15 0 5 16 9 35 9 38 0 40 2 25 31 -14 26 -56 25 -71 -2z m61
-10 c0 -5 -12 -9 -26 -9 -22 0 -24 2 -14 14 12 15 40 11 40 -5z"/>
<path d="M447 10253 c-4 -3 -7 -89 -7 -190 l0 -183 -164 0 c-99 0 -167 -4
-171 -10 -4 -7 57 -10 174 -10 l181 0 0 200 c0 110 -1 200 -3 200 -2 0 -7 -3
-10 -7z"/>
<path d="M275 10110 l-29 -30 29 -30 c16 -16 31 -28 33 -25 3 3 -5 16 -18 30
l-23 25 23 25 c13 14 21 27 18 30 -2 3 -17 -9 -33 -25z"/>
<path d="M120 9717 c0 -36 -5 -68 -12 -75 -9 -9 -9 -12 0 -12 8 0 12 -24 12
-80 0 -64 3 -80 15 -80 12 0 15 14 15 70 l0 70 85 0 85 0 0 -70 c0 -56 3 -70
15 -70 13 0 15 24 15 155 0 131 -2 155 -15 155 -12 0 -15 -14 -15 -70 l0 -71
-82 3 -83 3 -3 68 c-2 51 -6 67 -17 67 -12 0 -15 -15 -15 -63z"/>
<path d="M430 9625 l0 -155 110 0 c91 0 110 3 110 15 0 12 -17 15 -90 15 l-90
0 0 55 0 55 85 0 c69 0 85 3 85 15 0 12 -16 15 -85 15 l-85 0 0 55 0 55 85 0
c69 0 85 3 85 15 0 12 -18 15 -105 15 l-105 0 0 -155z"/>
<path d="M742 9629 c-30 -83 -51 -153 -48 -156 13 -13 36 9 47 47 l12 41 65
-3 65 -3 15 -42 c10 -32 19 -43 34 -43 12 0 18 5 16 13 -3 6 -27 76 -54 154
-45 133 -51 143 -74 143 -23 0 -29 -11 -78 -151z m102 44 c10 -32 21 -64 23
-70 4 -9 -9 -13 -46 -13 -28 0 -51 3 -51 8 0 15 44 132 50 132 4 0 14 -26 24
-57z"/>
<path d="M1000 9625 l0 -155 95 0 c77 0 95 3 95 15 0 11 -18 15 -77 17 l-78 3
-3 138 c-2 113 -5 137 -17 137 -13 0 -15 -25 -15 -155z"/>
<path d="M1210 9766 c0 -11 15 -16 53 -18 l52 -3 3 -137 c2 -112 5 -138 17
-138 12 0 15 26 17 138 l3 137 53 3 c37 2 52 7 52 18 0 11 -23 14 -125 14
-102 0 -125 -3 -125 -14z"/>
<path d="M1500 9625 c0 -148 1 -155 20 -155 18 0 20 7 20 70 l0 70 80 0 80 0
0 -70 c0 -63 2 -70 20 -70 19 0 20 7 20 155 0 148 -1 155 -20 155 -18 0 -20
-7 -20 -70 l0 -70 -80 0 -80 0 0 70 c0 63 -2 70 -20 70 -19 0 -20 -7 -20 -155z"/>
<path d="M111 9304 c0 -11 3 -14 6 -6 3 7 2 16 -1 19 -3 4 -6 -2 -5 -13z"/>
<path d="M91 9243 c-1 -6 -4 -20 -7 -30 -5 -17 -5 -17 6 0 6 10 9 23 6 30 -3
9 -5 9 -5 0z"/>
<path d="M110 8945 c-9 -10 -9 -15 -1 -15 6 0 11 -17 11 -40 0 -22 5 -40 10
-40 6 0 10 25 10 55 0 56 -8 67 -30 40z"/>
<path d="M90 8560 c0 -33 4 -60 10 -60 6 0 10 11 10 24 0 19 6 25 26 28 63 7
51 68 -12 68 l-34 0 0 -60z m65 25 c0 -13 -8 -21 -22 -23 -19 -3 -23 1 -23 23
0 22 4 26 23 23 14 -2 22 -10 22 -23z"/>
<path d="M733 8606 c-11 -19 -4 -106 8 -106 5 0 9 17 10 38 0 20 2 47 3 60 3
25 -9 29 -21 8z"/>
<path d="M530 8595 c-8 -9 -9 -15 -2 -15 6 0 13 -19 15 -42 3 -37 4 -35 5 15
1 31 0 57 -2 57 -2 0 -9 -7 -16 -15z"/>
<path d="M840 8595 c-8 -9 -9 -15 -2 -15 6 0 13 -19 15 -42 3 -37 4 -35 5 15
1 31 0 57 -2 57 -2 0 -9 -7 -16 -15z"/>
<path d="M207 8584 c-14 -14 -7 -26 8 -14 12 10 19 10 27 2 8 -8 7 -13 -5 -17
-9 -3 -24 -7 -33 -10 -8 -3 -14 -13 -12 -22 2 -13 14 -18 39 -19 l35 -2 -5 42
c-5 31 -11 42 -26 44 -12 2 -24 0 -28 -4z m41 -56 c-7 -19 -38 -22 -38 -4 0
10 9 16 21 16 12 0 19 -5 17 -12z"/>
<path d="M292 8578 c-28 -28 -1 -88 34 -74 10 4 14 2 11 -6 -2 -7 -14 -13 -26
-12 -11 0 -21 -3 -21 -8 0 -5 12 -8 28 -6 25 3 27 6 30 58 3 52 1 56 -21 58
-13 1 -29 -4 -35 -10z m48 -32 c0 -6 -5 -18 -10 -26 -9 -13 -12 -13 -25 4 -19
25 -2 64 21 45 8 -6 14 -17 14 -23z"/>
<path d="M382 8578 c-16 -16 -15 -53 3 -68 18 -15 47 -10 53 10 5 13 3 13 -12
1 -15 -12 -19 -12 -34 2 -15 16 -14 17 17 17 28 0 32 3 29 23 -3 25 -36 35
-56 15z m46 -16 c2 -7 -7 -12 -23 -12 -24 0 -26 2 -15 15 14 17 31 16 38 -3z"/>
<path d="M653 8583 c-7 -2 -13 -20 -13 -38 0 -25 5 -35 20 -40 26 -8 50 11 50
39 0 36 -25 53 -57 39z m41 -26 c8 -12 7 -21 -6 -33 -20 -20 -38 -11 -38 20 0
39 23 46 44 13z"/>
<path d="M910 8510 c0 -5 5 -10 10 -10 6 0 10 5 10 10 0 6 -4 10 -10 10 -5 0
-10 -4 -10 -10z"/>
<path d="M448 8414 c-5 -4 -8 -90 -8 -191 l0 -183 -164 0 c-91 0 -167 -4 -170
-9 -8 -13 86 -17 332 -13 173 3 212 7 212 18 0 11 -20 14 -90 14 l-90 0 0 55
0 55 85 0 c69 0 85 3 85 15 0 12 -16 15 -85 15 l-85 0 0 55 0 55 85 0 c69 0
85 3 85 15 0 12 -17 15 -89 15 l-90 0 -3 46 c-2 25 -6 42 -10 38z"/>
<path d="M710 8175 c0 -130 2 -155 15 -155 12 0 15 23 17 127 l3 128 82 -128
c61 -93 88 -127 103 -127 19 0 20 6 20 155 0 130 -2 155 -15 155 -12 0 -15
-23 -17 -127 l-3 -128 -84 128 c-115 176 -121 175 -121 -28z"/>
<path d="M1000 8315 c0 -11 12 -15 50 -15 l50 0 0 -140 c0 -117 2 -140 15
-140 12 0 15 24 17 138 l3 137 53 3 c37 2 52 7 52 18 0 11 -22 14 -120 14
-100 0 -120 -2 -120 -15z"/>
<path d="M1290 8175 l0 -155 110 0 c91 0 110 3 110 15 0 12 -17 15 -90 15
l-90 0 0 55 0 55 85 0 c69 0 85 3 85 15 0 12 -16 15 -85 15 l-85 0 0 55 0 55
85 0 c69 0 85 3 85 15 0 12 -18 15 -105 15 l-105 0 0 -155z"/>
<path d="M1580 8176 c0 -130 2 -156 15 -156 11 0 15 16 17 68 l3 67 53 3 c73
4 102 -15 102 -67 0 -53 8 -71 32 -71 14 0 18 5 14 18 -2 9 -8 37 -11 62 -4
25 -13 52 -21 61 -12 14 -11 18 6 34 26 23 26 75 1 106 -17 22 -29 24 -115 27
l-96 4 0 -156z m164 114 c21 -8 26 -16 26 -43 0 -48 -15 -57 -92 -57 l-68 0 0
48 c0 27 3 52 7 55 10 10 98 8 127 -3z"/>
<path d="M250 8295 c0 -5 10 -19 22 -32 l21 -23 -23 -25 c-13 -14 -21 -27 -18
-30 2 -3 17 9 33 25 l29 30 -32 33 c-18 17 -32 27 -32 22z"/>
<path d="M447 7973 c-4 -3 -7 -89 -7 -190 l0 -183 -164 0 c-99 0 -167 -4 -171
-10 -4 -7 57 -10 174 -10 l181 0 0 200 c0 110 -1 200 -3 200 -2 0 -7 -3 -10
-7z"/>
<path d="M215 7865 c-32 -31 -32 -69 1 -102 21 -21 32 -24 62 -19 29 4 41 1
59 -16 30 -28 43 -15 15 15 -17 18 -20 30 -16 59 5 30 2 41 -19 62 -33 33 -71
33 -102 1z m93 -7 c16 -16 16 -70 0 -86 -7 -7 -26 -12 -43 -12 -39 0 -55 16
-55 55 0 39 16 55 55 55 17 0 36 -5 43 -12z"/>
<path d="M261 7847 c-1 -10 -11 -22 -23 -27 -18 -7 -19 -9 -5 -9 10 -1 22 -11
27 -23 7 -18 9 -19 9 -5 1 10 11 22 24 27 17 7 18 9 4 9 -10 1 -22 11 -27 24
-7 17 -9 18 -9 4z"/>
<path d="M447 7533 c-4 -3 -7 -89 -7 -190 l0 -183 -164 0 c-99 0 -167 -4 -171
-10 -4 -7 57 -10 174 -10 l181 0 0 200 c0 110 -1 200 -3 200 -2 0 -7 -3 -10
-7z"/>
<path d="M194 7369 c-10 -17 13 -36 27 -22 12 12 4 33 -11 33 -5 0 -12 -5 -16
-11z"/>
<path d="M264 7369 c-10 -17 13 -36 27 -22 12 12 4 33 -11 33 -5 0 -12 -5 -16
-11z"/>
<path d="M334 7369 c-10 -17 13 -36 27 -22 12 12 4 33 -11 33 -5 0 -12 -5 -16
-11z"/>
<path d="M447 7093 c-4 -3 -7 -89 -7 -190 l0 -183 -164 0 c-99 0 -167 -4 -171
-10 -4 -7 57 -10 174 -10 l181 0 0 200 c0 110 -1 200 -3 200 -2 0 -7 -3 -10
-7z"/>
<path d="M308 6988 c9 -9 8 -16 -4 -29 -9 -10 -11 -20 -6 -23 5 -3 15 1 22 9
10 12 16 13 26 4 11 -9 14 -5 14 20 0 28 -3 31 -32 31 -25 0 -29 -3 -20 -12z"/>
<path d="M240 6895 c-10 -12 -16 -13 -26 -4 -11 9 -14 5 -14 -20 0 -28 3 -31
30 -31 17 0 30 5 30 10 0 6 -5 10 -12 10 -6 0 -4 8 6 19 10 11 13 22 8 25 -5
3 -15 -1 -22 -9z"/>
<path d="M90 6610 c0 -33 4 -60 10 -60 6 0 10 11 10 24 0 19 6 25 26 28 63 7
51 68 -12 68 l-34 0 0 -60z m65 25 c0 -13 -8 -21 -22 -23 -19 -3 -23 1 -23 23
0 22 4 26 23 23 14 -2 22 -10 22 -23z"/>
<path d="M202 6590 c1 -40 2 -41 5 -10 2 19 11 40 20 47 13 10 13 12 -6 10
-18 -1 -21 -7 -19 -47z"/>
<path d="M250 6614 c-19 -48 28 -87 60 -49 14 17 0 21 -17 4 -6 -6 -16 -8 -22
-5 -21 13 -11 26 19 26 31 0 39 17 18 38 -20 20 -48 14 -58 -14z m48 -2 c2 -7
-6 -12 -17 -12 -21 0 -27 11 -14 24 9 9 26 2 31 -12z"/>
<path d="M336 6618 c14 -45 24 -68 29 -68 8 0 35 66 34 82 0 7 -9 -5 -18 -27
l-19 -40 -7 38 c-4 20 -12 37 -17 37 -5 0 -6 -10 -2 -22z"/>
<path d="M423 6595 c0 -27 2 -38 4 -22 2 15 2 37 0 50 -2 12 -4 0 -4 -28z"/>
<path d="M462 6628 c-30 -30 -2 -86 38 -73 15 5 20 15 20 40 0 41 -32 59 -58
33z m43 -34 c0 -32 -21 -39 -38 -12 -8 12 -7 21 3 32 19 24 35 14 35 -20z"/>
<path d="M542 6598 c3 -41 5 -43 36 -44 32 -1 32 -1 31 45 -2 34 -3 38 -6 16
-10 -63 -43 -74 -43 -15 0 22 -5 40 -11 40 -6 0 -9 -17 -7 -42z"/>
<path d="M637 6634 c-15 -15 -6 -35 20 -45 19 -7 23 -13 15 -21 -8 -8 -16 -7
-28 3 -15 12 -17 12 -12 -1 7 -21 52 -19 56 2 2 12 -6 21 -24 28 -20 8 -24 14
-16 22 8 8 16 7 28 -3 15 -12 17 -12 12 1 -5 16 -39 25 -51 14z"/>
<path d="M750 6580 c0 -33 4 -60 10 -60 6 0 10 8 10 18 0 13 7 18 21 18 31 -1
46 26 31 58 -9 20 -19 26 -42 26 l-30 0 0 -60z m55 14 c0 -19 -5 -29 -15 -29
-16 0 -25 28 -16 51 10 25 31 10 31 -22z"/>
<path d="M857 6634 c-14 -14 -7 -26 8 -14 12 10 19 10 27 2 8 -8 7 -13 -5 -17
-9 -3 -24 -7 -33 -10 -8 -3 -14 -13 -12 -22 2 -13 14 -18 39 -19 l35 -2 -5 42
c-5 31 -11 42 -26 44 -12 2 -24 0 -28 -4z m41 -56 c-7 -19 -38 -22 -38 -4 0
10 9 16 21 16 12 0 19 -5 17 -12z"/>
<path d="M942 6628 c-28 -28 -1 -88 32 -75 10 4 13 1 9 -9 -4 -11 -13 -14 -30
-9 -16 4 -22 2 -18 -5 8 -14 38 -13 53 2 7 7 12 33 12 58 0 41 -3 46 -23 48
-13 1 -29 -4 -35 -10z m37 -49 c-5 -11 -14 -19 -19 -19 -16 0 -22 40 -9 56 12
14 14 14 26 -1 8 -13 9 -23 2 -36z"/>
<path d="M1032 6628 c-16 -16 -15 -53 3 -68 18 -15 47 -10 53 10 5 13 3 13
-12 1 -15 -12 -19 -12 -34 2 -15 16 -14 17 17 17 28 0 32 3 29 23 -3 25 -36
35 -56 15z m46 -16 c2 -7 -7 -12 -23 -12 -24 0 -26 2 -15 15 14 17 31 16 38
-3z"/>
<path d="M90 6420 c0 -68 17 -82 22 -17 l3 42 24 -42 c14 -24 28 -43 33 -43 4
0 7 28 6 63 l-1 62 -6 -50 -6 -50 -28 48 c-15 26 -32 47 -37 47 -6 0 -10 -27
-10 -60z"/>
<path d="M372 6454 c-7 -8 -8 -14 -2 -14 5 0 10 -18 10 -40 0 -22 3 -40 8 -40
7 0 8 98 0 105 -1 2 -9 -3 -16 -11z"/>
<path d="M208 6424 c-9 -18 -9 -30 -1 -42 13 -21 55 -22 61 -2 4 13 3 13 -11
2 -9 -8 -21 -11 -27 -7 -20 12 -10 25 20 25 33 0 35 3 20 31 -15 27 -48 24
-62 -7z m50 -2 c2 -7 -6 -12 -17 -12 -21 0 -27 11 -14 24 9 9 26 2 31 -12z"/>
<path d="M301 6427 c10 -21 10 -30 1 -39 -20 -20 -13 -32 7 -14 17 16 19 16
25 0 4 -9 9 -14 12 -11 3 3 0 15 -6 27 -9 16 -9 25 1 36 6 8 9 17 6 21 -4 3
-9 -2 -13 -11 -6 -16 -8 -16 -26 1 -19 17 -19 17 -7 -10z"/>
<path d="M461 6386 c1 -34 4 -52 6 -40 3 16 10 20 28 16 19 -3 27 1 34 19 14
38 -1 64 -38 65 l-31 1 1 -61z m57 25 c5 -34 -16 -51 -33 -27 -10 14 -11 24
-4 38 13 24 33 18 37 -11z"/>
<path d="M557 6443 c-14 -13 -7 -25 8 -13 8 6 19 9 25 5 17 -11 11 -23 -12
-27 -15 -2 -23 -10 -23 -23 0 -16 7 -20 36 -21 34 -1 35 0 31 30 -3 17 -9 37
-14 44 -11 13 -40 16 -51 5z m43 -52 c0 -14 -18 -23 -30 -16 -6 4 -8 11 -5 16
8 12 35 12 35 0z"/>
<path d="M644 6436 c-3 -8 -4 -27 -2 -43 2 -22 8 -28 26 -27 13 0 22 -5 22
-14 0 -10 -7 -12 -26 -8 -17 5 -23 3 -19 -4 10 -17 44 -11 55 9 5 11 10 38 10
60 0 39 -2 41 -30 41 -17 0 -33 -6 -36 -14z m41 -32 c0 -19 -5 -29 -15 -29
-16 0 -25 28 -16 51 10 25 31 10 31 -22z"/>
<path d="M730 6424 c-19 -48 28 -87 60 -49 14 17 0 21 -17 4 -6 -6 -16 -8 -22
-5 -21 13 -11 26 19 26 31 0 39 17 18 38 -20 20 -48 14 -58 -14z m48 -2 c2 -7
-6 -12 -17 -12 -21 0 -27 11 -14 24 9 9 26 2 31 -12z"/>
<path d="M118 6283 c17 -2 32 -7 32 -10 0 -3 -13 -22 -28 -42 -48 -61 -48 -61
5 -59 36 1 40 2 16 5 -18 2 -33 7 -33 11 0 4 14 25 30 46 17 22 30 43 30 48 0
4 -19 7 -42 6 -37 -1 -39 -2 -10 -5z"/>
<path d="M940 6271 c0 -14 -5 -18 -18 -14 -28 7 -47 -23 -36 -55 7 -21 16 -27
42 -29 l32 -1 0 59 c0 33 -4 59 -10 59 -5 0 -10 -9 -10 -19z m-5 -57 c0 -19
-5 -29 -15 -29 -16 0 -25 28 -16 51 10 25 31 10 31 -22z"/>
<path d="M1198 6269 c-7 -20 6 -92 17 -96 8 -2 11 41 6 100 -1 11 -19 8 -23
-4z"/>
<path d="M189 6239 c-8 -16 -8 -28 0 -45 18 -41 71 -25 71 21 0 44 -50 61 -71
24z m46 -25 c0 -19 -5 -29 -15 -29 -16 0 -25 28 -16 51 10 25 31 10 31 -22z"/>
<path d="M282 6248 c-7 -7 -12 -21 -12 -33 0 -46 53 -62 71 -21 21 45 -26 87
-59 54z m46 -27 c5 -34 -16 -51 -33 -27 -10 14 -11 24 -4 38 13 24 33 18 37
-11z"/>
<path d="M371 6211 l2 -46 6 39 c8 55 31 60 31 7 0 -51 18 -54 22 -4 4 52 28
56 28 4 0 -23 5 -41 11 -41 6 0 9 17 7 43 l-3 42 -52 1 -53 1 1 -46z"/>
<path d="M540 6215 c0 -25 5 -45 10 -45 6 0 10 20 10 45 0 25 -4 45 -10 45 -5
0 -10 -20 -10 -45z"/>
<path d="M581 6210 l1 -45 8 38 c4 20 10 40 13 43 13 13 27 -9 27 -42 0 -19 5
-34 10 -34 12 0 13 60 2 78 -5 6 -20 11 -35 10 -25 -2 -27 -5 -26 -48z"/>
<path d="M717 6253 c-14 -13 -7 -25 8 -13 8 6 19 9 25 5 17 -11 11 -23 -12
-27 -15 -2 -23 -10 -23 -23 0 -16 7 -20 36 -21 34 -1 35 0 31 30 -3 17 -9 37
-14 44 -11 13 -40 16 -51 5z m43 -52 c0 -14 -18 -23 -30 -16 -6 4 -8 11 -5 16
8 12 35 12 35 0z"/>
<path d="M801 6211 c1 -42 2 -43 8 -15 16 65 41 74 41 14 0 -22 5 -40 11 -40
6 0 9 17 7 43 -3 40 -5 42 -35 43 -33 1 -33 1 -32 -45z"/>
<path d="M1032 6248 c-30 -30 -2 -86 38 -73 15 5 20 15 20 40 0 41 -32 59 -58
33z m43 -34 c0 -32 -21 -39 -38 -12 -8 12 -7 21 3 32 19 24 35 14 35 -20z"/>
<path d="M1114 6220 c1 -43 2 -45 34 -48 32 -3 32 -3 32 42 0 55 -17 62 -22 9
-4 -53 -31 -51 -39 2 l-7 40 2 -45z"/>
<path d="M90 6041 c0 -65 19 -87 21 -23 l1 37 12 -34 c18 -50 31 -48 47 6 l14
48 6 -50 6 -50 1 63 c1 34 -2 62 -7 62 -5 0 -17 -24 -27 -52 l-17 -53 -17 49
c-24 72 -40 71 -40 -3z"/>
<path d="M232 6058 c-30 -30 -2 -86 38 -73 15 5 20 15 20 40 0 41 -32 59 -58
33z m43 -34 c0 -32 -21 -39 -38 -12 -8 12 -7 21 3 32 19 24 35 14 35 -20z"/>
<path d="M311 6020 c1 -43 1 -44 9 -13 4 18 13 39 19 47 10 12 9 15 -8 13 -18
-1 -21 -8 -20 -47z"/>
<path d="M368 6044 c-9 -18 -9 -30 -1 -42 13 -21 55 -22 61 -2 4 13 3 13 -11
2 -9 -8 -21 -11 -27 -7 -20 12 -10 25 20 25 33 0 35 3 20 31 -15 27 -48 24
-62 -7z m50 -2 c2 -7 -6 -12 -17 -12 -21 0 -27 11 -14 24 9 9 26 2 31 -12z"/>
<path d="M90 5850 l0 -60 48 2 c43 1 44 2 10 5 -32 4 -38 8 -38 28 0 19 6 24
33 28 l32 4 -32 1 c-25 2 -33 7 -33 21 0 15 8 21 38 24 34 3 33 4 -10 5 l-48
2 0 -60z"/>
<path d="M522 5893 c-4 -10 -5 -38 -1 -63 l6 -45 1 42 c1 23 8 44 15 46 9 4 8
6 -2 6 -11 1 -11 4 -1 16 8 10 9 15 2 15 -6 0 -15 -8 -20 -17z"/>
<path d="M653 5850 c0 -36 2 -50 4 -32 2 17 2 47 0 65 -2 17 -4 3 -4 -33z"/>
<path d="M693 5850 c0 -36 2 -50 4 -32 2 17 2 47 0 65 -2 17 -4 3 -4 -33z"/>
<path d="M288 5890 c-2 -6 -2 -31 0 -55 3 -34 8 -45 21 -44 10 0 11 2 4 6 -15
5 -18 70 -4 75 5 2 3 8 -4 15 -8 8 -15 8 -17 3z"/>
<path d="M201 5831 l2 -46 6 40 c4 26 11 40 21 40 10 0 17 -14 21 -40 l7 -40
-2 45 c-1 42 -3 45 -28 46 -27 1 -28 -1 -27 -45z"/>
<path d="M342 5868 c-20 -20 -15 -66 8 -73 20 -6 56 12 45 23 -2 3 -11 -1 -19
-7 -8 -7 -20 -10 -26 -6 -20 12 -10 25 20 25 18 0 30 5 30 13 0 16 -20 37 -35
37 -6 0 -16 -5 -23 -12z m29 -26 c-28 -4 -40 6 -21 18 9 6 20 4 29 -3 12 -10
11 -13 -8 -15z"/>
<path d="M421 5830 c2 -34 3 -37 6 -15 3 17 12 38 20 47 14 15 13 17 -6 15
-18 -1 -21 -7 -20 -47z"/>
<path d="M564 5840 c1 -43 2 -45 34 -48 32 -3 32 -3 32 42 0 55 -17 62 -22 9
-4 -53 -31 -51 -39 2 l-7 40 2 -45z"/>
<path d="M770 5865 c-12 -14 -11 -18 1 -26 8 -5 20 -9 27 -9 6 0 12 -7 12 -15
0 -18 -27 -20 -33 -2 -2 6 -8 9 -12 5 -11 -10 4 -28 24 -28 18 0 41 18 41 32
0 5 -11 13 -25 18 -14 5 -25 14 -25 20 0 14 13 13 29 -2 11 -11 13 -10 9 2 -7
21 -32 24 -48 5z"/>
<path d="M852 5868 c-16 -16 -15 -53 3 -68 18 -15 47 -10 53 10 5 13 3 13 -11
1 -14 -11 -20 -11 -32 -1 -19 15 -19 21 -1 45 12 16 16 17 30 6 9 -7 16 -9 16
-3 0 9 -22 22 -39 22 -4 0 -12 -5 -19 -12z"/>
<path d="M932 5830 c1 -40 2 -41 5 -10 2 19 11 40 20 47 13 10 13 12 -6 10
-18 -1 -21 -7 -19 -47z"/>
<path d="M980 5854 c-19 -48 28 -87 60 -49 14 17 0 21 -17 4 -6 -6 -16 -8 -22
-5 -21 13 -11 26 19 26 31 0 39 17 18 38 -20 20 -48 14 -58 -14z m48 -2 c2 -7
-6 -12 -17 -12 -21 0 -27 11 -14 24 9 9 26 2 31 -12z"/>
<path d="M1068 5854 c-9 -18 -9 -30 -1 -42 13 -21 55 -22 61 -2 4 13 3 13 -11
2 -9 -8 -21 -11 -27 -7 -20 12 -10 25 20 25 33 0 35 3 20 31 -15 27 -48 24
-62 -7z m50 -2 c2 -7 -6 -12 -17 -12 -21 0 -27 11 -14 24 9 9 26 2 31 -12z"/>
<path d="M1161 5831 l2 -46 6 40 c4 26 11 40 21 40 10 0 17 -14 21 -40 l7 -40
-2 45 c-1 42 -3 45 -28 46 -27 1 -28 -1 -27 -45z"/>
</g>
</svg>
